<svg width="212.99999999999997" height="69.39555786230754" viewBox="0 0 389.89473684210526 127.02799422880511" class="looka-1j8o68f"><defs id="SvgjsDefs1155"></defs><g id="SvgjsG1156" featurekey="2ou6gm-0" transform="matrix(1.4918246673640605,0,0,1.4918246673640605,-32.81805052694953,-19.29466196600373)" fill="#111111"><path xmlns="http://www.w3.org/2000/svg" fill="" d="M97.095 97.205a.88.88 0 0 1-.881.878l-26.44-.046a.88.88 0 0 1-.879-.882l.05-28.3a.88.88 0 0 1 .881-.878l26.44.046a.88.88 0 0 1 .879.882zM74.37 69.82a.59.59 0 0 0-.587-.593l-3.04-.016a.59.59 0 0 0-.593.587l-.018 3.44a.59.59 0 0 0 .587.593l3.04.016a.59.59 0 0 0 .593-.587zm5.345.002a.56.56 0 0 0-.562-.558l-3.12.01a.56.56 0 0 0-.558.562l.012 3.44a.56.56 0 0 0 .562.558l3.12-.01a.56.56 0 0 0 .558-.562zm5.486.165a.63.63 0 0 0-.623-.638l-3.24-.04a.63.63 0 0 0-.637.623l-.04 3.26a.63.63 0 0 0 .623.637l3.24.04a.63.63 0 0 0 .637-.623zm5.296-.19a.53.53 0 0 0-.526-.534l-3.22-.028a.53.53 0 0 0-.534.525l-.031 3.56a.53.53 0 0 0 .525.535l3.22.028a.53.53 0 0 0 .534-.525zm5.347.086a.61.61 0 0 0-.609-.611l-3.04-.006a.61.61 0 0 0-.611.61l-.006 3.32a.61.61 0 0 0 .609.61l3.04.006a.61.61 0 0 0 .611-.61zm-21.44 5.551a.57.57 0 0 0-.567-.574l-3.16-.022a.57.57 0 0 0-.573.566l-.025 3.58a.57.57 0 0 0 .566.574l3.16.022a.57.57 0 0 0 .573-.566zm5.24-.111a.62.62 0 0 0-.619-.621l-3-.006a.62.62 0 0 0-.62.62l-.007 3.64a.62.62 0 0 0 .619.62l3 .006a.62.62 0 0 0 .62-.62zm5.619.182a.62.62 0 0 0-.627-.614l-3.42.036a.62.62 0 0 0-.613.627l.036 3.44a.62.62 0 0 0 .627.613l3.42-.036a.62.62 0 0 0 .613-.627zm5.305.01a.61.61 0 0 0-.611-.609l-3.16.006a.61.61 0 0 0-.609.61l.006 3.44a.61.61 0 0 0 .611.61l3.16-.006a.61.61 0 0 0 .609-.61zm5.246-.072a.71.71 0 0 0-.709-.712l-2.86-.004a.71.71 0 0 0-.711.708l-.006 3.48a.71.71 0 0 0 .709.712l2.86.004a.71.71 0 0 0 .711-.708zm-21.507 5.833a.59.59 0 0 0-.588-.592l-3.06-.01a.59.59 0 0 0-.592.588l-.012 3.54a.59.59 0 0 0 .588.592l3.06.01a.59.59 0 0 0 .592-.588zm5.377.08a.68.68 0 0 0-.688-.672l-2.94.03a.68.68 0 0 0-.672.688l.035 3.32a.68.68 0 0 0 .687.672l2.94-.03a.68.68 0 0 0 .672-.688zm5.57.017a.69.69 0 0 0-.689-.691l-3.2-.006a.69.69 0 0 0-.691.689l-.006 3.28a.69.69 0 0 0 .689.691l3.2.006a.69.69 0 0 0 .691-.689zm5.196-.013a.63.63 0 0 0-.627-.633l-3.02-.016a.63.63 0 0 0-.633.627l-.018 3.4a.63.63 0 0 0 .627.633l3.02.016a.63.63 0 0 0 .633-.627zm5.4.06a.74.74 0 0 0-.737-.744l-2.82-.014a.74.74 0 0 0-.743.736l-.017 3.22a.74.74 0 0 0 .736.744l2.82.014a.74.74 0 0 0 .744-.736zm-21.512 5.815a.61.61 0 0 0-.611-.609l-3.08.006a.61.61 0 0 0-.609.61l.006 3.36a.61.61 0 0 0 .611.61l3.08-.006a.61.61 0 0 0 .609-.61zm5.362-.045a.57.57 0 0 0-.567-.573l-3.2-.016a.57.57 0 0 0-.573.567l-.018 3.46a.57.57 0 0 0 .567.573l3.2.016a.57.57 0 0 0 .573-.567zm5.604.094a.7.7 0 0 0-.707-.692l-3.34.035a.7.7 0 0 0-.693.707l.034 3.24a.7.7 0 0 0 .707.692l3.34-.035a.7.7 0 0 0 .693-.707zm5.204-.079a.6.6 0 0 0-.601-.599l-3.14.006a.6.6 0 0 0-.599.6l.006 3.38a.6.6 0 0 0 .601.6l3.14-.006a.6.6 0 0 0 .599-.6zm5.326.078a.71.71 0 0 0-.709-.712l-2.9-.005a.71.71 0 0 0-.711.71l-.006 3.26a.71.71 0 0 0 .709.71l2.9.005a.71.71 0 0 0 .711-.708zm-21.51 5.59a.57.57 0 0 0-.57-.571l-3.1-.006a.57.57 0 0 0-.57.57l-.006 3.36a.57.57 0 0 0 .57.57l3.1.006a.57.57 0 0 0 .57-.57zm5.285-.13a.5.5 0 0 0-.508-.491l-3.18.055a.5.5 0 0 0-.49.509l.062 3.58a.5.5 0 0 0 .508.49l3.18-.055a.5.5 0 0 0 .49-.509zm5.589.084a.63.63 0 0 0-.64-.62l-3.299.045a.63.63 0 0 0-.621.639l.046 3.32a.63.63 0 0 0 .64.62l3.299-.045a.63.63 0 0 0 .621-.639zm5.212-.055a.55.55 0 0 0-.559-.54l-3.16.055a.55.55 0 0 0-.54.56l.06 3.459a.55.55 0 0 0 .56.54l3.16-.055a.55.55 0 0 0 .54-.56zm5.431.057a.63.63 0 0 0-.63-.63h-3.02a.63.63 0 0 0-.63.63v3.38a.63.63 0 0 0 .63.63h3.02a.63.63 0 0 0 .63-.63z"></path><g xmlns="http://www.w3.org/2000/svg" fill=""><path d="M63.49 55.11a1.33 1.33 0 0 1-1.33 1.33H36.8a1.33 1.33 0 0 1-1.33-1.33V27.67a1.33 1.33 0 0 1 1.33-1.33h25.36a1.33 1.33 0 0 1 1.33 1.33zM41.094 28.011a.59.59 0 0 0-.581-.598l-3.3-.046a.59.59 0 0 0-.598.582l-.05 3.52a.59.59 0 0 0 .582.598l3.3.046a.59.59 0 0 0 .598-.582zm10.663-.226a.4.4 0 0 0-.403-.398l-3.64.026a.4.4 0 0 0-.397.402l.026 3.82a.4.4 0 0 0 .403.398l3.64-.026a.4.4 0 0 0 .397-.402zm-5.27.163a.48.48 0 0 0-.479-.482l-3.64-.012a.48.48 0 0 0-.482.478l-.012 3.62a.48.48 0 0 0 .478.482l3.64.012a.48.48 0 0 0 .482-.478zm10.848.133a.6.6 0 0 0-.595-.605l-3.54-.031a.6.6 0 0 0-.605.594l-.03 3.42a.6.6 0 0 0 .595.606l3.54.03a.6.6 0 0 0 .605-.594zm5.101-.143a.49.49 0 0 0-.488-.492l-3.3-.012a.49.49 0 0 0-.492.488l-.012 3.62a.49.49 0 0 0 .488.492l3.3.012a.49.49 0 0 0 .492-.488zm-10.665 5.529a.56.56 0 0 0-.566-.554l-3.32.035a.56.56 0 0 0-.554.565l.038 3.68a.56.56 0 0 0 .566.554l3.32-.035a.56.56 0 0 0 .554-.565zm-10.711.065a.49.49 0 0 0-.487-.493l-3.46-.018a.49.49 0 0 0-.493.487l-.02 3.84a.49.49 0 0 0 .487.493l3.46.018a.49.49 0 0 0 .493-.487zm5.4.008a.5.5 0 0 0-.5-.5H42.4a.5.5 0 0 0-.5.5v3.72a.5.5 0 0 0 .5.5h3.56a.5.5 0 0 0 .5-.5zm10.9.102a.56.56 0 0 0-.558-.562l-3.64-.02a.56.56 0 0 0-.562.558l-.02 3.6a.56.56 0 0 0 .558.562l3.64.02a.56.56 0 0 0 .563-.558zm5.043-.148a.47.47 0 0 0-.469-.471l-3.34-.006a.47.47 0 0 0-.47.47l-.007 3.84a.47.47 0 0 0 .469.47l3.34.006a.47.47 0 0 0 .47-.47zM41.09 39.262a.6.6 0 0 0-.597-.603l-3.26-.017a.6.6 0 0 0-.603.596l-.02 3.94a.6.6 0 0 0 .597.603l3.26.017a.6.6 0 0 0 .603-.596zm10.676-.117a.54.54 0 0 0-.544-.537l-3.36.024a.54.54 0 0 0-.536.544l.028 3.98a.54.54 0 0 0 .544.536l3.36-.024a.54.54 0 0 0 .536-.544zm-5.313.15a.56.56 0 0 0-.556-.563l-3.36-.024a.56.56 0 0 0-.563.556l-.027 3.86a.56.56 0 0 0 .556.564l3.36.024a.56.56 0 0 0 .563-.556zm10.86.08a.64.64 0 0 0-.639-.642l-3.42-.006a.64.64 0 0 0-.64.639l-.007 3.7a.64.64 0 0 0 .639.641l3.42.006a.64.64 0 0 0 .64-.639zm5.084-.159a.51.51 0 0 0-.511-.509l-3.26.006a.51.51 0 0 0-.51.51l.008 3.98a.51.51 0 0 0 .51.51l3.26-.006a.51.51 0 0 0 .51-.51zm-21.325 6.188a.7.7 0 0 0-.682-.717l-2.98-.073a.7.7 0 0 0-.716.683l-.086 3.519a.7.7 0 0 0 .682.717l2.98.073a.7.7 0 0 0 .716-.683zm5.32.029a.61.61 0 0 0-.598-.622l-3.219-.062a.61.61 0 0 0-.622.599l-.066 3.44a.61.61 0 0 0 .599.62l3.219.063a.61.61 0 0 0 .622-.599zm5.388-.103a.68.68 0 0 0-.68-.68h-3.04a.68.68 0 0 0-.68.68v3.5a.68.68 0 0 0 .68.68h3.04a.68.68 0 0 0 .68-.68zm5.47-.008a.68.68 0 0 0-.677-.684l-3.2-.016a.68.68 0 0 0-.684.676l-.018 3.52a.68.68 0 0 0 .676.684l3.2.016a.68.68 0 0 0 .684-.676zm5.114-.02a.54.54 0 0 0-.542-.538l-3.18.012a.54.54 0 0 0-.538.541l.012 3.68a.54.54 0 0 0 .542.538l3.18-.01a.54.54 0 0 0 .538-.542zm-21.326 6.144a.92.92 0 0 0-.922-.918l-2.54.004a.92.92 0 0 0-.919.922l.006 2.9a.92.92 0 0 0 .921.918l2.54-.004a.92.92 0 0 0 .918-.922zm5.33-.184a.62.62 0 0 0-.616-.623l-3.22-.017a.62.62 0 0 0-.623.616l-.018 3.3a.62.62 0 0 0 .617.624l3.22.016a.62.62 0 0 0 .623-.616zm5.396-.04a.64.64 0 0 0-.642-.637l-3.1.01a.64.64 0 0 0-.638.643l.012 3.38a.64.64 0 0 0 .642.637l3.1-.01a.64.64 0 0 0 .638-.643zm5.36.07a.68.68 0 0 0-.682-.677l-3.1.01a.68.68 0 0 0-.678.683l.012 3.3a.68.68 0 0 0 .682.677l3.1-.01a.68.68 0 0 0 .678-.683zm5.259.042a.71.71 0 0 0-.709-.711l-2.92-.005a.71.71 0 0 0-.711.708l-.006 3.2a.71.71 0 0 0 .709.711l2.92.005a.71.71 0 0 0 .711-.708zM96.12 31.62a.96.96 0 0 1 .97.96l.04 26.36a2.9 2.79 89.9 0 1-2.78 2.9l-22.58.04a2.9 2.79 89.9 0 1-2.8-2.9l-.04-26.36a.96.96 0 0 1 .95-.96zm-.16 1.642a.58.58 0 0 0-.578-.583l-3.32-.018a.58.58 0 0 0-.583.577l-.018 3.56a.58.58 0 0 0 .577.583l3.32.018a.58.58 0 0 0 .583-.577zm-21.527.013a.54.54 0 0 0-.537-.544l-3.26-.022a.54.54 0 0 0-.543.536l-.026 3.62a.54.54 0 0 0 .537.544l3.26.022a.54.54 0 0 0 .543-.536zm5.38-.05a.47.47 0 0 0-.467-.473l-3.48-.024a.47.47 0 0 0-.473.467l-.026 3.74a.47.47 0 0 0 .467.473l3.48.024a.47.47 0 0 0 .473-.467zm5.552.03a.53.53 0 0 0-.52-.54l-3.66-.07a.53.53 0 0 0-.54.52l-.07 3.68a.53.53 0 0 0 .52.54l3.66.07a.53.53 0 0 0 .54-.52zm5.228-.055a.46.46 0 0 0-.45-.47l-3.479-.079a.46.46 0 0 0-.47.45l-.087 3.819a.46.46 0 0 0 .45.47l3.479.079a.46.46 0 0 0 .47-.45zm-16.185 5.843a.6.6 0 0 0-.607-.592l-3.16.038a.6.6 0 0 0-.593.608l.044 3.58a.6.6 0 0 0 .607.592l3.16-.038a.6.6 0 0 0 .593-.608zm5.309-.058a.56.56 0 0 0-.564-.556l-3.26.022a.56.56 0 0 0-.556.564l.026 3.74a.56.56 0 0 0 .564.556l3.26-.022a.56.56 0 0 0 .556-.564zm5.657.064a.63.63 0 0 0-.635-.625l-3.62.032a.63.63 0 0 0-.625.635l.032 3.6a.63.63 0 0 0 .635.625l3.62-.032a.63.63 0 0 0 .625-.635zm5.19-.018a.58.58 0 0 0-.585-.575l-3.28.028a.58.58 0 0 0-.575.585l.032 3.66a.58.58 0 0 0 .585.575l3.28-.028a.58.58 0 0 0 .575-.585zm5.296-.011a.6.6 0 0 0-.6-.6h-3.22a.6.6 0 0 0-.6.6v3.68a.6.6 0 0 0 .6.6h3.22a.6.6 0 0 0 .6-.6zm-5.397 5.772a.54.54 0 0 0-.542-.538l-3.24.012a.54.54 0 0 0-.538.542l.014 3.9a.54.54 0 0 0 .542.538l3.24-.012a.54.54 0 0 0 .538-.542zM74.37 44.77a.48.48 0 0 0-.483-.478l-3.34.018a.48.48 0 0 0-.477.482l.02 3.9a.48.48 0 0 0 .483.478l3.34-.018a.48.48 0 0 0 .477-.482zm5.333.185a.64.64 0 0 0-.639-.641l-3.04-.006a.64.64 0 0 0-.64.64l-.007 3.66a.64.64 0 0 0 .639.64l3.04.006a.64.64 0 0 0 .64-.64zm5.587-.044a.64.64 0 0 0-.64-.64h-3.44a.64.64 0 0 0-.64.64v3.66a.64.64 0 0 0 .64.64h3.44a.64.64 0 0 0 .64-.64zm10.6-.058a.57.57 0 0 0-.567-.573l-3.28-.018a.57.57 0 0 0-.573.567l-.02 3.82a.57.57 0 0 0 .567.573l3.28.018a.57.57 0 0 0 .573-.567zm-21.527 5.78a.5.5 0 0 0-.501-.498l-3.24.012a.5.5 0 0 0-.499.501l.014 3.82a.5.5 0 0 0 .501.499l3.24-.012a.5.5 0 0 0 .499-.501zm5.294-.026a.46.46 0 0 0-.461-.459l-3.38.006a.46.46 0 0 0-.46.46l.007 3.92a.46.46 0 0 0 .461.46l3.38-.006a.46.46 0 0 0 .46-.46zm5.633.102a.57.57 0 0 0-.573-.567l-3.62.019a.57.57 0 0 0-.567.573l.02 3.7a.57.57 0 0 0 .573.566l3.62-.019a.57.57 0 0 0 .567-.572zm5.216-.066a.5.5 0 0 0-.508-.491l-3.38.059a.5.5 0 0 0-.491.508l.067 3.82a.5.5 0 0 0 .508.491l3.38-.059a.5.5 0 0 0 .491-.508zm5.324-.063a.48.48 0 0 0-.483-.478l-3.42.018a.48.48 0 0 0-.477.483l.02 3.94a.48.48 0 0 0 .483.477l3.42-.018a.48.48 0 0 0 .477-.482zM73.77 56l-3.16.06a.59.59 0 0 0-.57.6l.05 2.7a1.54 1.45-1.1 0 0 1.57 1.42l1.26-.02a1.54 1.45-1.1 0 0 1.51-1.48l-.05-2.7a.59.59 0 0 0-.61-.58m5.88.456a.52.52 0 0 0-.527-.511l-3.26.05a.52.52 0 0 0-.512.529l.058 3.68a.52.52 0 0 0 .528.511l3.26-.05a.52.52 0 0 0 .512-.529zm5.647.239a.68.68 0 0 0-.673-.687l-3.32-.035a.68.68 0 0 0-.686.673l-.035 3.32a.68.68 0 0 0 .673.687l3.32.034a.68.68 0 0 0 .687-.673zm5.195-.068a.63.63 0 0 0-.636-.623l-3.1.032a.63.63 0 0 0-.624.637l.036 3.36a.63.63 0 0 0 .636.623l3.1-.032a.63.63 0 0 0 .624-.637zm5.393.266a.94.94 0 0 0-.93-.95l-2.56-.026a.94.94 0 0 0-.95.93l-.03 2.88a.94.94 0 0 0 .93.95l2.56.026a.94.94 0 0 0 .95-.93zM63.465 91.615a1.02 1.02 0 0 1-1.021 1.018l-26.02-.046a1.02 1.02 0 0 1-1.019-1.022l.05-28.2a1.02 1.02 0 0 1 1.021-1.018l26.02.046a1.02 1.02 0 0 1 1.019 1.021zm-22.393-27.4a.6.6 0 0 0-.596-.604l-3.24-.022a.6.6 0 0 0-.604.596l-.024 3.54a.6.6 0 0 0 .596.604l3.24.022a.6.6 0 0 0 .604-.596zm5.332-.033a.58.58 0 0 0-.582-.578l-3.22.012a.58.58 0 0 0-.578.582l.012 3.5a.58.58 0 0 0 .582.578l3.22-.012a.58.58 0 0 0 .578-.582zm5.376-.1a.48.48 0 0 0-.478-.483l-3.46-.018a.48.48 0 0 0-.482.477l-.02 3.78a.48.48 0 0 0 .478.483l3.46.018a.48.48 0 0 0 .482-.477zm5.49.23a.69.69 0 0 0-.698-.682l-3.24.04a.69.69 0 0 0-.682.698l.04 3.24a.69.69 0 0 0 .698.682l3.24-.04a.69.69 0 0 0 .682-.698zm5.121.053a.7.7 0 0 0-.695-.705l-2.84-.02a.7.7 0 0 0-.705.695l-.022 3.22a.7.7 0 0 0 .695.705l2.84.02a.7.7 0 0 0 .705-.695zM41.106 69.78a.54.54 0 0 0-.532-.547l-3.38-.047a.54.54 0 0 0-.547.532l-.053 3.78a.54.54 0 0 0 .532.547l3.38.047a.54.54 0 0 0 .547-.532zm5.33-.155a.39.39 0 0 0-.39-.39l-3.62.007a.39.39 0 0 0-.39.39l.008 3.98a.39.39 0 0 0 .39.39l3.62-.006a.39.39 0 0 0 .39-.39zm5.32.08a.49.49 0 0 0-.49-.489l-3.4.006a.49.49 0 0 0-.49.49l.007 3.86a.49.49 0 0 0 .491.49l3.4-.006a.49.49 0 0 0 .49-.49zm5.527.078a.5.5 0 0 0-.499-.5l-3.62-.007a.5.5 0 0 0-.5.499l-.007 3.8a.5.5 0 0 0 .499.5l3.62.007a.5.5 0 0 0 .5-.499zm5.057-.025a.46.46 0 0 0-.462-.458l-3.3.018a.46.46 0 0 0-.458.462l.02 3.78a.46.46 0 0 0 .462.458l3.3-.018a.46.46 0 0 0 .458-.462zm-10.617 5.633a.43.43 0 0 0-.432-.428l-3.5.012a.43.43 0 0 0-.428.432l.014 4.12a.43.43 0 0 0 .432.428l3.5-.012a.43.43 0 0 0 .428-.432zm-10.71.122a.49.49 0 0 0-.489-.491l-3.38-.006a.49.49 0 0 0-.49.49l-.008 4a.49.49 0 0 0 .49.49l3.38.006a.49.49 0 0 0 .49-.49zM46.4 75.5a.45.45 0 0 0-.45-.45h-3.56a.45.45 0 0 0-.45.45v3.96a.45.45 0 0 0 .45.45h3.56a.45.45 0 0 0 .45-.45zm10.853.184a.53.53 0 0 0-.529-.53l-3.54-.007a.53.53 0 0 0-.53.529l-.007 3.72a.53.53 0 0 0 .529.53l3.54.007a.53.53 0 0 0 .53-.529zm5.11-.191a.41.41 0 0 0-.411-.409l-3.4.012a.41.41 0 0 0-.409.411l.014 4.04a.41.41 0 0 0 .412.409l3.4-.012a.41.41 0 0 0 .408-.411zM51.769 81.53a.6.6 0 0 0-.597-.603l-3.2-.016a.6.6 0 0 0-.603.596l-.018 3.56a.6.6 0 0 0 .597.604l3.2.016a.6.6 0 0 0 .603-.597zm-10.83-.01a.51.51 0 0 0-.507-.512l-3.26-.017a.51.51 0 0 0-.512.507l-.02 3.76a.51.51 0 0 0 .508.512l3.26.017a.51.51 0 0 0 .512-.507zm5.459.063a.59.59 0 0 0-.594-.586l-3.38.024a.59.59 0 0 0-.586.594l.024 3.48a.59.59 0 0 0 .594.586l3.38-.024a.59.59 0 0 0 .586-.594zm10.803.035a.53.53 0 0 0-.52-.539l-3.44-.06a.53.53 0 0 0-.54.521l-.062 3.6a.53.53 0 0 0 .52.539l3.44.06a.53.53 0 0 0 .54-.521zm5.169-.038a.47.47 0 0 0-.468-.472l-3.32-.018a.47.47 0 0 0-.472.468l-.02 3.66a.47.47 0 0 0 .468.472l3.32.018a.47.47 0 0 0 .472-.468zM51.695 87.18a.55.55 0 0 0-.558-.543l-3.28.046a.55.55 0 0 0-.542.558l.05 3.62a.55.55 0 0 0 .558.542l3.28-.046a.55.55 0 0 0 .542-.558zm-10.717.113a.61.61 0 0 0-.603-.617l-3.08-.032a.61.61 0 0 0-.617.604l-.036 3.52a.61.61 0 0 0 .603.616l3.08.032a.61.61 0 0 0 .616-.604zm5.4.059a.64.64 0 0 0-.636-.644l-3.18-.016a.64.64 0 0 0-.643.636l-.018 3.36a.64.64 0 0 0 .637.644l3.18.016a.64.64 0 0 0 .643-.636zm10.745.022a.66.66 0 0 0-.659-.661l-3.12-.006a.66.66 0 0 0-.661.66l-.006 3.36a.66.66 0 0 0 .659.66l3.12.006a.66.66 0 0 0 .661-.66zm5.186-.06a.55.55 0 0 0-.557-.543l-3.22.039a.55.55 0 0 0-.543.556l.042 3.44a.55.55 0 0 0 .557.544l3.22-.04a.55.55 0 0 0 .543-.556z"></path></g></g><g id="SvgjsG1157" featurekey="kZnDdN-0" transform="matrix(3.376469574703534,0,0,3.376469574703534,128.96117867078775,29.416475822709042)" fill="#111111"><path d="M14.46 12.96 c0.3 4.48 -2.76 7.24 -6.4 7.24 c-3.74 0 -7.16 -2.96 -7.16 -7.2 s3.5 -7.2 7.16 -7.2 c1.76 0 3.36 0.6 4.62 1.66 l-1.02 1.16 c-0.98 -0.78 -2.24 -1.24 -3.5 -1.24 c-2.86 0 -5.54 2.32 -5.54 5.62 s2.6 5.62 5.44 5.62 c2.48 0 4.46 -1.34 4.84 -4.22 l-4.08 0 l0 -1.44 l5.64 0 z M18.240000000000002 6 l0 14 l-1.66 0 l0 -14 l1.66 0 z M33.900000000000006 12.96 c0.3 4.48 -2.76 7.24 -6.4 7.24 c-3.74 0 -7.16 -2.96 -7.16 -7.2 s3.5 -7.2 7.16 -7.2 c1.76 0 3.36 0.6 4.62 1.66 l-1.02 1.16 c-0.98 -0.78 -2.24 -1.24 -3.5 -1.24 c-2.86 0 -5.54 2.32 -5.54 5.62 s2.6 5.62 5.44 5.62 c2.48 0 4.46 -1.34 4.84 -4.22 l-4.08 0 l0 -1.44 l5.64 0 z M37.68 18.44 l6.66 0 l0 1.56 l-7.06 0 l-1.26 0 l0 -14 l1.66 0 l6.48 0 l0 1.56 l-6.48 0 l0 4.64 l5.04 0 l0 1.52 l-5.04 0 l0 4.72 z M46.92 20.1 c-0.66 0 -0.98 -0.32 -0.98 -0.98 s0.32 -0.98 0.98 -0.98 s0.98 0.32 0.98 0.98 s-0.32 0.98 -0.98 0.98 z M61.36 18.5 c-1.28 1.1 -2.9 1.7 -4.7 1.7 c-3.64 0 -7.16 -2.96 -7.16 -7.2 s3.52 -7.2 7.16 -7.2 c1.78 0 3.38 0.6 4.64 1.66 l-1.02 1.16 c-0.98 -0.78 -2.24 -1.24 -3.5 -1.24 c-2.86 0 -5.56 2.32 -5.56 5.62 s2.7 5.62 5.56 5.62 c1.28 0 2.56 -0.48 3.54 -1.28 z M70.12 5.800000000000001 c3.64 0 7.16 2.96 7.16 7.2 s-3.52 7.2 -7.16 7.2 c-3.66 0 -7.16 -2.96 -7.16 -7.2 s3.5 -7.2 7.16 -7.2 z M70.12 18.62 c2.74 0 5.44 -2.32 5.44 -5.62 s-2.7 -5.62 -5.44 -5.62 c-2.76 0 -5.44 2.32 -5.44 5.62 s2.68 5.62 5.44 5.62 z"></path></g></svg>