<?xml version="1.0" encoding="UTF-8"?>
<svg id="Layer_1" xmlns="http://www.w3.org/2000/svg" version="1.1" viewBox="0 0 45 45">
  <!-- Generator: Adobe Illustrator 29.2.1, SVG Export Plug-In . SVG Version: 2.1.0 Build 116)  -->
  <defs>
    <style>
      .st0 {
        fill: #fff;
      }
    </style>
  </defs>
  <g id="SvgjsG1156">
    <path class="st0" d="M35.4,38.5c0,.2-.2.4-.4.4h-11.1c-.2,0-.4-.2-.4-.4h0s0-11.8,0-11.8c0-.2.2-.4.4-.4h11.1c.2,0,.4.2.4.4h0s0,11.8,0,11.8ZM25.9,27c0-.1-.1-.2-.2-.2h-1.3c-.1,0-.2.1-.2.2h0s0,1.4,0,1.4c0,.1.1.2.2.2h1.3c.1,0,.2-.1.2-.2h0s0-1.4,0-1.4ZM28.1,27c0-.1-.1-.2-.2-.2h-1.3c-.1,0-.2.1-.2.2h0v1.4c0,.1.1.2.2.2h1.3c.1,0,.2-.1.2-.2h0v-1.4ZM30.4,27.1c0-.1-.1-.3-.3-.3,0,0,0,0,0,0h-1.4c-.1,0-.3,0-.3.2h0s0,1.4,0,1.4c0,.1.1.3.3.3h1.4c.1,0,.3,0,.3-.2h0s0-1.4,0-1.4ZM32.6,27c0-.1,0-.2-.2-.2h-1.3c-.1,0-.2,0-.2.2v1.5c0,.1,0,.2.2.2h1.3c.1,0,.2,0,.2-.2v-1.5ZM34.9,27c0-.1-.1-.3-.3-.3h-1.3c-.1,0-.3.1-.3.3h0s0,1.4,0,1.4c0,.1.1.3.3.3h1.3c.1,0,.3-.1.3-.3h0s0-1.4,0-1.4ZM25.9,29.4c0-.1-.1-.2-.2-.2,0,0,0,0,0,0h-1.3c-.1,0-.2,0-.2.2v1.5c0,.1,0,.2.2.2h1.3c.1,0,.2,0,.2-.2v-1.5ZM28.1,29.3c0-.1-.1-.3-.3-.3h-1.3c-.1,0-.3.1-.3.3h0s0,1.5,0,1.5c0,.1.1.3.3.3h1.3c.1,0,.3-.1.3-.3h0s0-1.5,0-1.5ZM30.4,29.4c0-.1-.1-.3-.3-.3,0,0,0,0,0,0h-1.4c-.1,0-.3.1-.3.3h0s0,1.4,0,1.4c0,.1.1.3.3.3h1.4c.1,0,.3-.1.3-.3h0s0-1.4,0-1.4ZM32.7,29.4c0-.1-.1-.3-.3-.3h-1.3c-.1,0-.3.1-.3.3v1.4c0,.1.1.3.3.3h1.3c.1,0,.3-.1.3-.3v-1.4ZM34.8,29.4c0-.2-.1-.3-.3-.3h-1.2c-.2,0-.3.1-.3.3v1.5c0,.2.1.3.3.3h1.2c.2,0,.3-.1.3-.3v-1.5ZM25.9,31.8c0-.1-.1-.2-.2-.2h-1.3c-.1,0-.2.1-.2.2h0s0,1.5,0,1.5c0,.1.1.2.2.2h1.3c.1,0,.2-.1.2-.2h0s0-1.5,0-1.5ZM28.1,31.8c0-.2-.1-.3-.3-.3h-1.2c-.2,0-.3.1-.3.3h0s0,1.4,0,1.4c0,.2.1.3.3.3h1.2c.2,0,.3-.1.3-.3h0s0-1.4,0-1.4ZM30.4,31.8c0-.2-.1-.3-.3-.3h-1.3c-.2,0-.3.1-.3.3h0s0,1.4,0,1.4c0,.2.1.3.3.3h1.3c.2,0,.3-.1.3-.3h0s0-1.4,0-1.4ZM32.6,31.8c0-.1-.1-.3-.3-.3h-1.3c-.1,0-.3.1-.3.3h0s0,1.4,0,1.4c0,.1.1.3.3.3h1.3c.1,0,.3-.1.3-.3h0s0-1.4,0-1.4ZM34.9,31.9c0-.2-.1-.3-.3-.3,0,0,0,0,0,0h-1.2c-.2,0-.3.1-.3.3v1.3c0,.2.1.3.3.3h1.2c.2,0,.3-.1.3-.3h0s0-1.3,0-1.3ZM25.9,34.3c0-.1-.1-.3-.3-.3h-1.3c-.1,0-.3.1-.3.3v1.4c0,.1.1.3.3.3h1.3c.1,0,.3-.1.3-.3v-1.4ZM28.1,34.3c0-.1-.1-.2-.2-.2h-1.3c-.1,0-.2,0-.2.2h0s0,1.4,0,1.4c0,.1.1.2.2.2h1.3c.1,0,.2,0,.2-.2h0s0-1.4,0-1.4ZM30.5,34.3c0-.2-.1-.3-.3-.3h-1.4c-.2,0-.3.1-.3.3h0s0,1.4,0,1.4c0,.2.1.3.3.3h1.4c.2,0,.3-.1.3-.3h0s0-1.4,0-1.4ZM32.6,34.3c0-.1-.1-.3-.3-.3h-1.3c-.1,0-.3.1-.3.3v1.4c0,.1.1.3.3.3h1.3c.1,0,.3-.1.3-.3v-1.4ZM34.9,34.3c0-.2-.1-.3-.3-.3h-1.2c-.2,0-.3.1-.3.3h0s0,1.4,0,1.4c0,.2.1.3.3.3h1.2c.2,0,.3-.1.3-.3v-1.4ZM25.9,36.7c0-.1-.1-.2-.2-.2h-1.3c-.1,0-.2.1-.2.2v1.4c0,.1.1.2.2.2h1.3c.1,0,.2-.1.2-.2v-1.4ZM28.1,36.6c0-.1,0-.2-.2-.2h-1.3c-.1,0-.2.1-.2.2v1.5c0,.1.1.2.2.2h1.3c.1,0,.2-.1.2-.2v-1.5ZM30.4,36.6c0-.1-.1-.3-.3-.3h-1.4c-.1,0-.3.1-.3.3h0s0,1.4,0,1.4c0,.1.1.3.3.3h1.4c.1,0,.3-.1.3-.3h0s0-1.4,0-1.4ZM32.6,36.6c0-.1-.1-.2-.2-.2h-1.3c-.1,0-.2.1-.2.3h0s0,1.4,0,1.4c0,.1.1.2.2.2h1.3c.1,0,.2-.1.2-.3h0s0-1.4,0-1.4ZM34.9,36.6c0-.1-.1-.3-.3-.3h-1.3c-.1,0-.3.1-.3.3v1.4c0,.1.1.3.3.3h1.3c.1,0,.3-.1.3-.3v-1.4Z"/>
    <path class="st0" d="M21.3,20.9c0,.3-.2.6-.6.6h-10.6c-.3,0-.6-.2-.6-.6h0v-11.5c0-.3.2-.6.6-.6h10.6c.3,0,.6.2.6.6h0v11.5ZM12,9.5c0-.1-.1-.2-.2-.2h-1.4c-.1,0-.2,0-.2.2h0s0,1.5,0,1.5c0,.1.1.2.2.2h1.4c.1,0,.2,0,.2-.2h0s0-1.5,0-1.5ZM16.4,9.4c0,0,0-.2-.2-.2h0s-1.5,0-1.5,0c0,0-.2,0-.2.2v1.6c0,0,0,.2.2.2,0,0,0,0,0,0h1.5c0,0,.2,0,.2-.2v-1.6ZM14.2,9.5c0-.1,0-.2-.2-.2,0,0,0,0,0,0h-1.5c-.1,0-.2,0-.2.2h0s0,1.5,0,1.5c0,.1,0,.2.2.2h1.5c.1,0,.2,0,.2-.2h0s0-1.5,0-1.5ZM18.8,9.6c0-.1-.1-.3-.2-.3h-1.5c-.1,0-.3,0-.3.2v1.4c0,.1,0,.3.2.3h0s1.5,0,1.5,0c.1,0,.3-.1.3-.2v-1.4ZM20.9,9.5c0-.1,0-.2-.2-.2h-1.4c-.1,0-.2,0-.2.2h0s0,1.5,0,1.5c0,.1,0,.2.2.2h1.4c.1,0,.2,0,.2-.2h0s0-1.5,0-1.5ZM16.4,11.8c0-.1-.1-.2-.2-.2h-1.4c-.1,0-.2.1-.2.3v1.5c0,.1.1.2.3.2h1.4c.1,0,.2-.1.2-.3v-1.5ZM12,11.9c0-.1,0-.2-.2-.2h-1.4c-.1,0-.2,0-.2.2h0s0,1.6,0,1.6c0,.1,0,.2.2.2h1.4c.1,0,.2,0,.2-.2h0s0-1.6,0-1.6ZM14.2,11.9c0-.1,0-.2-.2-.2h-1.5c-.1,0-.2,0-.2.2v1.6c0,.1,0,.2.2.2h1.5c.1,0,.2,0,.2-.2v-1.6ZM18.8,11.9c0-.1-.1-.2-.2-.2h-1.5c-.1,0-.2,0-.2.2h0s0,1.5,0,1.5c0,.1.1.2.2.2h1.5c.1,0,.2,0,.2-.2,0,0,0,0,0,0v-1.5ZM20.9,11.8c0-.1,0-.2-.2-.2h-1.4c-.1,0-.2,0-.2.2h0s0,1.6,0,1.6c0,.1,0,.2.2.2h1.4c.1,0,.2,0,.2-.2h0s0-1.6,0-1.6ZM12,14.2c0-.1-.1-.3-.2-.3h-1.4c-.1,0-.3.1-.3.2v1.6c0,.1.1.3.2.3h1.4c.1,0,.3-.1.3-.2v-1.6ZM16.4,14.2c0-.1-.1-.2-.2-.2,0,0,0,0,0,0h-1.4c-.1,0-.2.1-.2.2h0s0,1.7,0,1.7c0,.1.1.2.2.2h1.4c.1,0,.2-.1.2-.2h0s0-1.7,0-1.7ZM14.2,14.3c0-.1-.1-.2-.2-.2h-1.4c-.1,0-.2,0-.2.2v1.6c0,.1,0,.2.2.2h1.4c.1,0,.2,0,.2-.2v-1.6ZM18.8,14.3c0-.1-.1-.3-.3-.3,0,0,0,0,0,0h-1.4c-.1,0-.3.1-.3.3v1.5c0,.1.1.3.3.3h1.4c.1,0,.3-.1.3-.3v-1.5ZM20.9,14.2c0-.1,0-.2-.2-.2h-1.4c-.1,0-.2,0-.2.2v1.7c0,.1,0,.2.2.2h1.4c.1,0,.2,0,.2-.2v-1.7ZM12,16.8c0-.2-.1-.3-.3-.3h-1.2c-.2,0-.3,0-.3.3v1.5c0,.2,0,.3.2.3h1.2c.2,0,.3,0,.3-.3v-1.5ZM14.2,16.8c0-.1-.1-.3-.2-.3,0,0,0,0,0,0h-1.3c-.1,0-.3,0-.3.2h0s0,1.4,0,1.4c0,.1.1.3.3.3h1.3c.1,0,.3,0,.3-.2h0s0-1.4,0-1.4ZM16.4,16.8c0-.2-.1-.3-.3-.3h-1.3c-.2,0-.3.1-.3.3h0v1.5c0,.2.1.3.3.3h1.3c.2,0,.3-.1.3-.3h0v-1.5ZM18.7,16.8c0-.2-.1-.3-.3-.3,0,0,0,0,0,0h-1.3c-.2,0-.3.1-.3.3h0s0,1.5,0,1.5c0,.2.1.3.3.3h1.3c.2,0,.3-.1.3-.3h0s0-1.5,0-1.5ZM20.9,16.8c0-.1-.1-.2-.2-.2h-1.3c-.1,0-.2.1-.2.2v1.5c0,.1.1.2.2.2h1.3c.1,0,.2-.1.2-.2h0s0-1.5,0-1.5ZM12,19.3c0-.2-.2-.4-.4-.4h-1.1c-.2,0-.4.2-.4.4h0s0,1.2,0,1.2c0,.2.2.4.4.4h1.1c.2,0,.4-.2.4-.4h0s0-1.2,0-1.2ZM14.2,19.3c0-.1-.1-.3-.3-.3h-1.3c-.1,0-.3.1-.3.3v1.4c0,.1.1.3.2.3,0,0,0,0,0,0h1.3c.1,0,.3-.1.3-.3v-1.4ZM16.4,19.2c0-.1-.1-.3-.3-.3h-1.3c-.1,0-.3.1-.3.3,0,0,0,0,0,0v1.4c0,.1.1.3.3.3h1.3c.1,0,.3-.1.3-.3,0,0,0,0,0,0v-1.4ZM18.7,19.3c0-.2-.1-.3-.3-.3h-1.3c-.2,0-.3.1-.3.3,0,0,0,0,0,0v1.4c0,.2.1.3.3.3h1.3c.2,0,.3-.1.3-.3,0,0,0,0,0,0v-1.4ZM20.9,19.3c0-.2-.1-.3-.3-.3h-1.2c-.2,0-.3.1-.3.3v1.3c0,.2.1.3.3.3h1.2c.2,0,.3-.1.3-.3v-1.3ZM35,11.1c.2,0,.4.2.4.4,0,0,0,0,0,0v11c0,.7-.5,1.2-1.1,1.2h-9.4c-.6,0-1.2-.5-1.2-1.2,0,0,0,0,0,0v-11c0-.2.2-.4.4-.4h11ZM34.9,11.7c0-.1-.1-.2-.2-.2,0,0,0,0,0,0h-1.4c-.1,0-.2,0-.2.2h0s0,1.5,0,1.5c0,.1.1.2.2.2h1.4c.1,0,.2,0,.2-.2h0s0-1.5,0-1.5ZM25.9,11.7c0-.1,0-.2-.2-.2,0,0,0,0,0,0h-1.4c-.1,0-.2,0-.2.2v1.5c0,.1,0,.2.2.2,0,0,0,0,0,0h1.4c.1,0,.2,0,.2-.2v-1.5ZM28.2,11.7c0-.1,0-.2-.2-.2h-1.5c-.1,0-.2,0-.2.2h0s0,1.6,0,1.6c0,.1,0,.2.2.2h1.5c.1,0,.2,0,.2-.2h0s0-1.6,0-1.6ZM30.5,11.7c0-.1,0-.2-.2-.2,0,0,0,0,0,0h-1.5c-.1,0-.2,0-.2.2h0s0,1.5,0,1.5c0,.1,0,.2.2.2,0,0,0,0,0,0h1.5c.1,0,.2,0,.2-.2h0s0-1.5,0-1.5ZM32.7,11.7c0-.1,0-.2-.2-.2,0,0,0,0,0,0h-1.5c-.1,0-.2,0-.2.2,0,0,0,0,0,0v1.6c0,.1,0,.2.2.2,0,0,0,0,0,0h1.5c.1,0,.2,0,.2-.2,0,0,0,0,0,0v-1.6ZM25.9,14.2c0-.1-.1-.2-.3-.2h-1.3c-.1,0-.2.1-.2.3,0,0,0,0,0,0v1.5c0,.1.1.2.3.2h1.3c.1,0,.2-.1.2-.3,0,0,0,0,0,0v-1.5ZM28.1,14.1c0-.1-.1-.2-.2-.2h-1.4c-.1,0-.2.1-.2.2h0s0,1.6,0,1.6c0,.1.1.2.2.2h1.4c.1,0,.2-.1.2-.2h0s0-1.6,0-1.6ZM30.5,14.2c0-.1-.1-.3-.3-.3h-1.5c-.1,0-.3.1-.3.3h0s0,1.5,0,1.5c0,.1.1.3.3.3h1.5c.1,0,.3-.1.3-.3h0s0-1.5,0-1.5ZM32.7,14.1c0-.1-.1-.2-.2-.2h-1.4c-.1,0-.2.1-.2.3h0s0,1.5,0,1.5c0,.1.1.2.2.2h1.4c.1,0,.2-.1.2-.3h0s0-1.5,0-1.5ZM34.9,14.1c0-.1-.1-.3-.3-.3h-1.3c-.1,0-.3.1-.3.3v1.5c0,.1.1.3.3.3h1.3c.1,0,.3-.1.3-.3v-1.5ZM32.6,16.6c0-.1-.1-.2-.2-.2h-1.4c-.1,0-.2.1-.2.2h0s0,1.6,0,1.6c0,.1.1.2.2.2h1.4c.1,0,.2-.1.2-.2h0s0-1.6,0-1.6ZM25.9,16.5c0-.1,0-.2-.2-.2,0,0,0,0,0,0h-1.4c-.1,0-.2,0-.2.2v1.6c0,.1,0,.2.2.2,0,0,0,0,0,0h1.4c.1,0,.2,0,.2-.2v-1.6ZM28.1,16.6c0-.1-.1-.3-.3-.3h-1.3c-.1,0-.3.1-.3.3v1.5c0,.1.1.3.3.3h1.3c.1,0,.3-.1.3-.3v-1.5ZM30.4,16.6c0-.1-.1-.3-.3-.3h-1.4c-.1,0-.3.1-.3.3v1.5c0,.1.1.3.3.3h1.4c.1,0,.3-.1.3-.3v-1.5ZM34.9,16.6c0-.1-.1-.2-.2-.2h-1.4c-.1,0-.2,0-.2.2h0s0,1.6,0,1.6c0,.1.1.2.2.2h1.4c.1,0,.2,0,.2-.2h0s0-1.6,0-1.6ZM25.9,19c0-.1,0-.2-.2-.2h-1.4c-.1,0-.2,0-.2.2h0s0,1.6,0,1.6c0,.1,0,.2.2.2h1.4c.1,0,.2,0,.2-.2h0s0-1.6,0-1.6ZM28.1,19c0-.1,0-.2-.2-.2h-1.4c-.1,0-.2,0-.2.2v1.6c0,.1,0,.2.2.2h1.4c.1,0,.2,0,.2-.2v-1.6ZM30.4,19c0-.1-.1-.2-.2-.2h-1.5c-.1,0-.2.1-.2.2h0s0,1.5,0,1.5c0,.1.1.2.2.2h1.5c.1,0,.2-.1.2-.2v-1.5ZM32.6,19c0-.1,0-.2-.2-.2h-1.4c-.1,0-.2.1-.2.2v1.6c0,.1.1.2.2.2h1.4c.1,0,.2-.1.2-.2v-1.6ZM34.9,19c0-.1,0-.2-.2-.2,0,0,0,0,0,0h-1.4c-.1,0-.2,0-.2.2h0s0,1.6,0,1.6c0,.1,0,.2.2.2h1.4c.1,0,.2,0,.2-.2v-1.6ZM25.6,21.2h-1.3c-.1,0-.2.1-.2.3v1.1c0,.3.3.6.7.6,0,0,0,0,0,0h.5c.4,0,.6-.3.6-.6v-1.1c0-.1-.1-.2-.3-.2,0,0,0,0,0,0M28.1,21.4c0-.1-.1-.2-.2-.2h-1.4c-.1,0-.2.1-.2.2,0,0,0,0,0,0v1.5c0,.1.1.2.2.2h1.4c.1,0,.2-.1.2-.2,0,0,0,0,0,0v-1.5ZM30.5,21.5c0-.2-.1-.3-.3-.3h-1.4c-.2,0-.3.1-.3.3v1.4c0,.2.1.3.3.3h1.4c.2,0,.3-.1.3-.3h0s0-1.4,0-1.4ZM32.6,21.5c0-.1-.1-.3-.3-.3h-1.3c-.1,0-.3.1-.3.3,0,0,0,0,0,0v1.4c0,.1.1.3.3.3h1.3c.1,0,.3-.1.3-.3,0,0,0,0,0,0v-1.4ZM34.9,21.6c0-.2-.2-.4-.4-.4h-1.1c-.2,0-.4.2-.4.4h0s0,1.2,0,1.2c0,.2.2.4.4.4h1.1c.2,0,.4-.2.4-.4h0s0-1.2,0-1.2ZM21.3,36.1c0,.2-.2.4-.4.4h-10.9c-.2,0-.4-.2-.4-.4h0s0-11.8,0-11.8c0-.2.2-.4.4-.4h10.9c.2,0,.4.2.4.4h0s0,11.8,0,11.8ZM12,24.7c0-.1-.1-.3-.2-.3h-1.4c-.1,0-.3.1-.3.2h0s0,1.5,0,1.5c0,.1.1.3.2.3h1.4c.1,0,.3-.1.3-.2h0s0-1.5,0-1.5ZM14.2,24.7c0-.1-.1-.2-.2-.2h-1.3c-.1,0-.2.1-.2.2h0v1.5c0,.1.1.2.2.2h1.3c.1,0,.2-.1.2-.2h0s0-1.5,0-1.5ZM16.4,24.6c0-.1,0-.2-.2-.2,0,0,0,0,0,0h-1.4c-.1,0-.2,0-.2.2v1.6c0,.1,0,.2.2.2,0,0,0,0,0,0h1.4c.1,0,.2,0,.2-.2v-1.6ZM18.7,24.7c0-.2-.1-.3-.3-.3h-1.4c-.2,0-.3.1-.3.3h0s0,1.4,0,1.4c0,.2.1.3.3.3h1.4c.2,0,.3-.1.3-.3h0s0-1.4,0-1.4ZM20.9,24.7c0-.2-.1-.3-.3-.3h-1.2c-.2,0-.3.1-.3.3h0s0,1.3,0,1.3c0,.2.1.3.3.3h1.2c.2,0,.3-.1.3-.3h0s0-1.3,0-1.3ZM12,27c0-.1,0-.2-.2-.2h-1.4c-.1,0-.2,0-.2.2v1.6c0,.1,0,.2.2.2h1.4c.1,0,.2,0,.2-.2v-1.6ZM14.2,26.9c0,0,0-.2-.2-.2h-1.5c0,0-.2,0-.2.2v1.7c0,0,0,.2.2.2h1.5c0,0,.2,0,.2-.2v-1.7ZM16.4,27c0-.1,0-.2-.2-.2h-1.4c-.1,0-.2,0-.2.2v1.6c0,.1,0,.2.2.2h1.4c.1,0,.2,0,.2-.2v-1.6ZM18.7,27c0-.1,0-.2-.2-.2h-1.5c-.1,0-.2,0-.2.2v1.6c0,.1,0,.2.2.2h1.5c.1,0,.2,0,.2-.2v-1.6ZM20.9,27c0-.1,0-.2-.2-.2h-1.4c-.1,0-.2,0-.2.2h0s0,1.6,0,1.6c0,.1,0,.2.2.2h1.4c.1,0,.2,0,.2-.2h0s0-1.6,0-1.6ZM16.4,29.3c0,0,0-.2-.2-.2h-1.5c0,0-.2,0-.2.2h0s0,1.7,0,1.7c0,0,0,.2.2.2h1.5c0,0,.2,0,.2-.2h0s0-1.7,0-1.7ZM11.9,29.4c0-.1,0-.2-.2-.2h-1.4c-.1,0-.2,0-.2.2v1.7c0,.1,0,.2.2.2h1.4c.1,0,.2,0,.2-.2v-1.7ZM14.2,29.4c0-.1,0-.2-.2-.2h-1.5c-.1,0-.2,0-.2.2v1.7c0,.1,0,.2.2.2h1.5c.1,0,.2,0,.2-.2v-1.7ZM18.7,29.5c0-.1,0-.2-.2-.2h-1.5c-.1,0-.2,0-.2.2v1.6c0,.1,0,.2.2.2h1.5c.1,0,.2,0,.2-.2v-1.6ZM20.9,29.4c0,0,0-.2-.2-.2h-1.4c0,0-.2,0-.2.2h0s0,1.7,0,1.7c0,0,0,.2.2.2h1.4c0,0,.2,0,.2-.2v-1.7ZM16.4,31.9c0-.1-.1-.3-.2-.3h-1.3c-.1,0-.3.1-.3.2v1.5c0,.1.1.3.2.3,0,0,0,0,0,0h1.3c.1,0,.3-.1.3-.2h0s0-1.5,0-1.5ZM11.9,31.9c0-.1,0-.2-.2-.2h-1.4c-.1,0-.2,0-.2.2v1.6c0,.1,0,.2.2.2h1.4c.1,0,.2,0,.2-.2v-1.6ZM14.2,31.9c0-.1-.1-.2-.2-.2h-1.4c-.1,0-.2.1-.2.3h0s0,1.5,0,1.5c0,.1.1.2.2.2h1.4c.1,0,.2-.1.2-.3h0s0-1.5,0-1.5ZM18.7,32c0-.1,0-.2-.2-.2h-1.4c-.1,0-.2,0-.2.2,0,0,0,0,0,0v1.5c0,.1,0,.2.2.2h1.4c.1,0,.2,0,.2-.2,0,0,0,0,0,0v-1.5ZM20.9,31.9c0-.1,0-.2-.2-.2h-1.4c-.1,0-.2,0-.2.2h0s0,1.5,0,1.5c0,.1,0,.2.2.2h1.4c.1,0,.2,0,.2-.2h0s0-1.5,0-1.5ZM16.4,34.3c0-.1-.1-.2-.2-.2,0,0,0,0,0,0h-1.4c-.1,0-.2.1-.2.3h0s0,1.5,0,1.5c0,.1.1.2.2.2h1.4c.1,0,.2-.1.2-.3h0s0-1.5,0-1.5ZM11.9,34.3c0-.1-.1-.3-.3-.3h-1.3c-.1,0-.3,0-.3.2h0s0,1.5,0,1.5c0,.1.1.3.3.3h1.3c.1,0,.3,0,.3-.2h0s0-1.5,0-1.5ZM14.2,34.3c0-.1-.1-.3-.3-.3h-1.3c-.1,0-.3.1-.3.3v1.4c0,.1.1.3.3.3,0,0,0,0,0,0h1.3c.1,0,.3-.1.3-.3v-1.4ZM18.7,34.4c0-.2-.1-.3-.3-.3h-1.3c-.2,0-.3.1-.3.3h0s0,1.4,0,1.4c0,.2.1.3.3.3h1.3c.2,0,.3-.1.3-.3h0s0-1.4,0-1.4ZM20.8,34.3c0-.1-.1-.2-.2-.2h-1.3c-.1,0-.2.1-.2.2v1.4c0,.1.1.2.2.2,0,0,0,0,0,0h1.3c.1,0,.2-.1.2-.2v-1.4Z"/>
  </g>
</svg>