<?xml version="1.0" encoding="UTF-8"?><svg id="uuid-90b55c70-bdc6-4d38-8a46-06321531f917" xmlns="http://www.w3.org/2000/svg" viewBox="0 0 202.07 58.47"><g id="uuid-2807aa36-56fa-4666-af9f-b8793b9fb971"><g id="uuid-62911560-d908-40f1-9052-f689c667a6fd"><path d="M50.28,57.75c0,.4-.32.72-.72.72l-21.55-.04c-.4,0-.72-.32-.72-.72h0s.04-23.06.04-23.06c0-.4.32-.72.72-.72l21.55.04c.4,0,.72.32.72.72h0s-.04,23.06-.04,23.06ZM31.76,35.44c0-.27-.21-.48-.48-.48h-2.48c-.27-.01-.48.2-.48.47h0s-.01,2.8-.01,2.8c0,.27.21.48.48.48h2.48c.27.01.48-.2.48-.47h0s.01-2.8.01-2.8ZM36.11,35.44c0-.25-.21-.46-.46-.45h-2.54c-.25,0-.46.21-.45.47h0v2.8c.01.25.22.46.47.45h2.54c.25,0,.46-.21.45-.47h0v-2.8ZM40.58,35.57c0-.28-.22-.52-.51-.52,0,0,0,0,0,0l-2.64-.03c-.28,0-.52.22-.52.51h0s-.03,2.66-.03,2.66c0,.28.22.52.51.52h0l2.64.03c.28,0,.52-.22.52-.51h0s.03-2.66.03-2.66ZM44.9,35.42c0-.24-.19-.43-.43-.44h0l-2.62-.02c-.24,0-.43.19-.44.43l-.03,2.9c0,.24.19.43.43.44h0l2.62.02c.24,0,.43-.19.44-.43l.03-2.9ZM49.26,35.49c0-.27-.22-.5-.5-.5h-2.48c-.27,0-.5.22-.5.49h0s0,2.71,0,2.71c0,.27.22.5.5.5h2.48c.27,0,.5-.22.5-.49h0s0-2.71,0-2.71ZM31.78,40.01c0-.26-.2-.47-.46-.47,0,0,0,0,0,0l-2.58-.02c-.26,0-.47.21-.47.46l-.02,2.92c0,.26.2.47.46.47h0l2.58.02c.26,0,.47-.21.47-.46l.02-2.92ZM36.05,39.92c0-.28-.23-.51-.5-.51h-2.44c-.28,0-.51.22-.51.5h0s0,2.97,0,2.97c0,.28.23.5.5.51h2.44c.28,0,.51-.22.51-.5h0s0-2.97,0-2.97ZM40.63,40.07c0-.28-.23-.5-.51-.5,0,0,0,0,0,0l-2.79.03c-.28,0-.5.23-.5.51h0s.03,2.8.03,2.8c0,.28.23.5.51.5h0l2.79-.03c.28,0,.5-.23.5-.51h0s-.03-2.8-.03-2.8ZM44.96,40.08c0-.27-.22-.5-.5-.5h-2.58c-.27,0-.5.23-.5.5v2.8c0,.27.23.5.5.5h2.58c.27,0,.5-.23.5-.5v-2.8ZM49.23,40.02c0-.32-.26-.58-.58-.58h-2.33c-.32,0-.58.25-.58.57v2.84c0,.32.25.58.57.58h2.33c.32,0,.58-.25.58-.57v-2.84ZM31.7,44.77c0-.27-.21-.48-.48-.48h-2.49c-.27,0-.48.21-.48.47h0s0,2.89,0,2.89c0,.27.21.48.48.48h2.49c.27,0,.48-.21.48-.47h0s0-2.89,0-2.89ZM36.09,44.84c0-.31-.25-.55-.56-.55h0l-2.4.02c-.31,0-.55.25-.55.56h0s.03,2.71.03,2.71c0,.31.25.55.56.55l2.4-.02c.31,0,.55-.25.55-.56h0s-.03-2.71-.03-2.71ZM40.63,44.85c0-.31-.25-.56-.56-.56h-2.61c-.31,0-.56.25-.56.56h0s0,2.67,0,2.67c0,.31.25.56.56.56h2.61c.31,0,.56-.25.56-.56h0s0-2.67,0-2.67ZM44.86,44.84c0-.28-.23-.51-.51-.52h-2.46c-.28-.01-.51.21-.52.5h0s-.01,2.77-.01,2.77c0,.28.23.51.51.52h2.46c.28.01.51-.21.52-.5h0s.01-2.77.01-2.77ZM49.26,44.89c0-.33-.27-.6-.6-.61,0,0,0,0,0,0h-2.3c-.33-.01-.6.26-.61.59v2.62c-.02.33.25.6.59.61h2.3c.33.01.6-.26.61-.59h0s.01-2.62.01-2.62ZM31.73,49.63c0-.27-.22-.5-.5-.5h-2.51c-.27,0-.5.23-.5.5v2.74c0,.27.23.5.5.5h2.51c.27,0,.5-.23.5-.5v-2.74ZM36.1,49.59c0-.26-.21-.47-.46-.47h-2.61c-.26-.01-.47.19-.47.45h0s-.01,2.82-.01,2.82c0,.26.21.47.46.47h2.61c.26.01.47-.19.47-.45h0s.01-2.82.01-2.82ZM40.67,49.67c0-.31-.26-.57-.58-.56l-2.72.03c-.32,0-.57.26-.56.58h0s.03,2.64.03,2.64c0,.31.26.57.58.56l2.72-.03c.32,0,.57-.26.56-.58h0s-.03-2.64-.03-2.64ZM44.91,49.6c0-.27-.22-.49-.49-.49h-2.56c-.27,0-.49.22-.49.49v2.75c0,.27.22.49.49.49h2.56c.27,0,.49-.22.49-.49v-2.76ZM49.25,49.67c0-.32-.26-.58-.58-.58h-2.36c-.32,0-.58.25-.58.57h0s0,2.66,0,2.66c0,.32.26.58.58.58h2.36c.32,0,.58-.25.58-.57v-2.66ZM31.72,54.22c0-.26-.21-.46-.46-.47h-2.53c-.26,0-.46.2-.46.46v2.74c0,.26.2.46.46.46h2.53c.26,0,.46-.2.46-.46v-2.74ZM36.03,54.12c0-.22-.19-.4-.41-.4l-2.59.04c-.22,0-.4.19-.4.41l.05,2.92c0,.22.19.4.41.4l2.59-.04c.22,0,.4-.19.4-.41l-.05-2.92ZM40.58,54.19c0-.28-.24-.51-.52-.51h0l-2.69.04c-.28,0-.51.24-.51.52h0s.04,2.71.04,2.71c0,.28.24.51.52.51h0l2.69-.04c.28,0,.51-.24.51-.52h0s-.04-2.71-.04-2.71ZM44.83,54.14c0-.25-.21-.44-.46-.44l-2.58.04c-.25,0-.44.21-.44.46h0s.05,2.82.05,2.82c0,.25.21.44.46.44h0l2.58-.04c.25,0,.44-.21.44-.46h0s-.05-2.82-.05-2.82ZM49.25,54.19c0-.28-.23-.51-.51-.51h-2.46c-.28,0-.51.23-.51.51v2.75c0,.28.23.51.51.51h2.46c.28,0,.51-.23.51-.51v-2.75Z" style="fill:#fff;"/><path d="M22.89,23.45c0,.6-.49,1.08-1.08,1.08H1.14c-.6,0-1.08-.49-1.08-1.08H.05V1.08C.05.49.54,0,1.14,0h20.67c.6,0,1.08.49,1.08,1.08h0v22.36ZM4.64,1.36c0-.27-.21-.48-.47-.49l-2.69-.04c-.27,0-.48.21-.49.47h0s-.04,2.87-.04,2.87c0,.27.21.48.47.49h0l2.69.04c.27,0,.48-.21.49-.47h0s.04-2.87.04-2.87ZM13.33,1.18c0-.18-.15-.33-.33-.32h0s-2.97.02-2.97.02c-.18,0-.32.15-.32.33l.02,3.11c0,.18.15.33.33.32,0,0,0,0,0,0l2.97-.02c.18,0,.32-.15.32-.33l-.02-3.11ZM9.03,1.31c0-.22-.17-.39-.39-.39,0,0,0,0,0,0h-2.97c-.22-.01-.39.16-.39.38h0s0,2.95,0,2.95c0,.22.17.39.39.39h2.97c.22.01.39-.16.39-.38h0s.01-2.95.01-2.95ZM17.87,1.42c0-.27-.21-.49-.48-.49h0l-2.89-.03c-.27,0-.49.21-.49.48l-.02,2.79c0,.27.21.49.48.49h0s2.89.02,2.89.02c.27,0,.49-.21.49-.48l.02-2.79ZM22.03,1.3c0-.22-.18-.4-.4-.4h-2.69c-.22-.01-.4.17-.4.39h0s0,2.95,0,2.95c0,.22.18.4.4.4h2.69c.22.01.4-.17.4-.39h0s0-2.95,0-2.95ZM13.34,5.81c0-.25-.21-.45-.46-.45h0l-2.71.03c-.25,0-.45.21-.45.46l.03,3c0,.25.21.45.46.45h0l2.71-.03c.25,0,.45-.21.45-.46l-.03-3ZM4.61,5.86c0-.22-.18-.4-.4-.4H1.39c-.22-.02-.4.16-.4.38h0s-.02,3.13-.02,3.13c0,.22.18.4.4.4h2.82c.22.02.4-.16.4-.38h0s.02-3.13.02-3.13ZM9.01,5.87c0-.23-.18-.41-.41-.41h-2.9c-.23,0-.41.18-.41.41v3.03c0,.23.18.41.41.41h2.9c.23,0,.41-.18.41-.41v-3.03ZM17.89,5.95c0-.25-.2-.46-.45-.46h0l-2.97-.02c-.25,0-.46.2-.46.45h0s-.02,2.93-.02,2.93c0,.25.2.46.45.46h0l2.97.02c.25,0,.46-.2.46-.45,0,0,0,0,0,0l.02-2.93ZM22,5.83c0-.21-.17-.38-.38-.38h-2.72c-.21,0-.38.17-.38.38h0s0,3.13,0,3.13c0,.21.17.38.38.38h2.72c.21,0,.38-.17.38-.38h0s0-3.13,0-3.13ZM4.63,10.53c0-.27-.22-.49-.49-.49H1.49c-.27-.02-.49.2-.49.47l-.02,3.21c0,.27.22.49.49.49h2.66c.27.02.49-.2.49-.47l.02-3.21ZM13.33,10.44c0-.24-.2-.44-.44-.44,0,0,0,0,0,0l-2.74.02c-.24,0-.44.2-.44.44h0s.02,3.24.02,3.24c0,.24.2.44.44.44h0l2.74-.02c.24,0,.44-.2.44-.44h0s-.02-3.24-.02-3.24ZM9,10.56c0-.25-.2-.46-.45-.46l-2.74-.02c-.25,0-.46.2-.46.45l-.02,3.15c0,.25.2.46.45.46h0l2.74.02c.25,0,.46-.2.46-.45l.02-3.15ZM17.85,10.62c0-.29-.23-.52-.52-.52,0,0,0,0,0,0h-2.79c-.29,0-.52.23-.52.52v3.02c0,.29.23.52.52.52h2.79c.29,0,.52-.23.52-.52v-3.01ZM22,10.49c0-.23-.19-.42-.42-.41h-2.66c-.23,0-.42.19-.42.42v3.24c0,.23.19.42.42.42h2.66c.23,0,.42-.19.42-.42v-3.24ZM4.62,15.54c0-.31-.24-.58-.56-.58l-2.43-.06c-.31,0-.58.24-.58.56l-.07,2.87c0,.31.24.58.56.58l2.43.06c.31,0,.58-.24.58-.56l.07-2.87ZM8.95,15.56c0-.27-.21-.5-.49-.51,0,0,0,0,0,0l-2.62-.05c-.27,0-.5.21-.51.49,0,0,0,0,0,0l-.05,2.8c0,.27.21.5.49.51l2.62.05c.27,0,.5-.21.51-.49,0,0,0,0,0,0l.05-2.8ZM13.35,15.48c0-.31-.25-.55-.55-.55h-2.48c-.31,0-.55.25-.55.55h0v2.85c0,.31.25.55.55.55h2.48c.31,0,.55-.25.55-.55h0v-2.85ZM17.8,15.47c0-.31-.24-.56-.55-.56,0,0,0,0,0,0h-2.61c-.31-.01-.56.23-.56.54h0s-.01,2.87-.01,2.87c0,.31.24.56.55.56h2.61c.31.01.56-.23.56-.54h0s.02-2.87.02-2.87ZM21.97,15.45c0-.24-.2-.44-.44-.44h-2.59c-.24.01-.44.21-.44.45v3c.01.24.21.44.45.44h2.59c.24,0,.44-.21.44-.45h0s0-3,0-3ZM4.59,20.46c0-.41-.34-.75-.75-.75H1.77c-.41,0-.75.34-.75.75h0s0,2.36,0,2.36c0,.41.34.75.75.75h2.07c.41,0,.75-.34.75-.75h0s0-2.36,0-2.36ZM8.93,20.31c0-.28-.22-.51-.5-.51h-2.62c-.28-.02-.51.21-.51.49v2.69c-.02.28.21.51.49.51,0,0,0,0,0,0h2.62c.28.01.51-.21.51-.49v-2.69ZM13.33,20.28c0-.29-.24-.52-.52-.52h-2.53c-.29,0-.52.24-.52.53,0,0,0,0,0,0v2.75c.01.29.25.52.53.52h2.53c.29,0,.52-.24.52-.53,0,0,0,0,0,0v-2.75ZM17.7,20.34c0-.31-.25-.55-.56-.55h-2.53c-.31,0-.55.26-.55.56,0,0,0,0,0,0v2.69c.01.31.26.55.57.55h2.53c.31,0,.55-.26.55-.56,0,0,0,0,0,0v-2.69ZM21.99,20.37c0-.32-.26-.58-.58-.58h-2.38c-.32,0-.58.25-.58.57v2.61c0,.32.25.58.57.58h2.38c.32,0,.58-.25.58-.57v-2.61ZM49.48,4.3c.43,0,.79.34.79.77,0,0,0,0,0,0l.03,21.48c0,1.3-1.01,2.36-2.27,2.36l-18.4.03c-1.26,0-2.28-1.05-2.28-2.36,0,0,0,0,0,0l-.03-21.48c0-.43.35-.78.77-.78l21.39-.03ZM49.35,5.64c0-.26-.21-.47-.47-.48,0,0,0,0,0,0h-2.71c-.26-.02-.47.19-.48.46h0s-.01,2.9-.01,2.9c0,.26.21.47.47.48h2.71c.26.02.47-.19.48-.46h0s.02-2.9.02-2.9ZM31.81,5.65c0-.24-.19-.44-.44-.44,0,0,0,0,0,0l-2.66-.02c-.24,0-.44.19-.44.44l-.02,2.95c0,.24.19.44.44.44,0,0,0,0,0,0l2.66.02c.24,0,.44-.19.44-.44l.02-2.95ZM36.19,5.61c0-.21-.17-.38-.38-.39h0l-2.84-.02c-.21,0-.38.17-.39.38h0s-.02,3.05-.02,3.05c0,.21.17.38.38.39h0l2.84.02c.21,0,.38-.17.39-.38h0s.02-3.05.02-3.05ZM40.72,5.64c0-.24-.19-.44-.42-.44,0,0,0,0,0,0l-2.98-.06c-.24,0-.44.19-.44.42h0s-.06,3-.06,3c0,.24.19.44.42.44,0,0,0,0,0,0l2.98.06c.24,0,.44-.19.44-.42h0s.06-3,.06-3ZM44.98,5.59c0-.21-.16-.38-.37-.38,0,0,0,0,0,0l-2.84-.06c-.21,0-.38.16-.38.37,0,0,0,0,0,0l-.07,3.11c0,.21.16.38.37.38,0,0,0,0,0,0l2.84.06c.21,0,.38-.16.38-.37,0,0,0,0,0,0l.07-3.11ZM31.79,10.35c0-.27-.22-.49-.49-.48l-2.58.03c-.27,0-.49.22-.48.49,0,0,0,0,0,0l.04,2.92c0,.27.22.49.49.48l2.58-.03c.27,0,.49-.22.48-.49,0,0,0,0,0,0l-.04-2.92ZM36.11,10.31c0-.25-.21-.45-.46-.45h0l-2.66.02c-.25,0-.45.21-.45.46h0s.02,3.05.02,3.05c0,.25.21.45.46.45h0l2.66-.02c.25,0,.45-.21.45-.46h0s-.02-3.05-.02-3.05ZM40.72,10.36c0-.28-.23-.51-.52-.51h0l-2.95.03c-.28,0-.51.23-.51.52h0s.03,2.93.03,2.93c0,.28.23.51.52.51h0l2.95-.03c.28,0,.51-.23.51-.52h0s-.03-2.93-.03-2.93ZM44.95,10.34c0-.26-.22-.47-.48-.47h0l-2.67.02c-.26,0-.47.22-.47.48h0s.03,2.98.03,2.98c0,.26.22.47.48.47h0l2.67-.02c.26,0,.47-.22.47-.48h0s-.03-2.98-.03-2.98ZM49.27,10.33c0-.27-.22-.49-.49-.49h-2.62c-.27,0-.49.22-.49.49v3c0,.27.22.49.49.49h2.62c.27,0,.49-.22.49-.49v-3ZM44.87,15.04c0-.24-.2-.44-.44-.44h-2.64c-.24.01-.44.21-.44.45h0s.01,3.18.01,3.18c0,.24.2.44.44.44h2.64c.24-.01.44-.21.44-.45h0s-.01-3.18-.01-3.18ZM31.76,15.02c0-.22-.18-.39-.39-.39,0,0,0,0,0,0h-2.72c-.22.02-.39.19-.39.41l.02,3.18c0,.22.18.39.39.39,0,0,0,0,0,0h2.72c.22-.02.39-.19.39-.41l-.02-3.18ZM36.1,15.17c0-.29-.23-.52-.52-.52h-2.48c-.29,0-.52.23-.52.52v2.98c0,.29.23.52.52.52h2.48c.29,0,.52-.23.52-.52v-2.98ZM40.66,15.14c0-.29-.23-.52-.52-.52h-2.8c-.29,0-.52.23-.52.52v2.98c0,.29.23.52.52.52h2.8c.29,0,.52-.23.52-.52v-2.98ZM49.29,15.09c0-.26-.21-.47-.46-.47h-2.67c-.26-.02-.47.19-.47.45h0s-.02,3.11-.02,3.11c0,.26.21.47.46.47h2.67c.26.02.47-.19.47-.45h0s.02-3.11.02-3.11ZM31.75,19.8c0-.22-.18-.41-.41-.41h-2.64c-.23.01-.41.19-.41.42h0s.01,3.11.01,3.11c0,.23.18.41.41.41h2.64c.23-.01.41-.19.41-.42h0s-.01-3.11-.01-3.11ZM36.06,19.78c0-.21-.17-.37-.38-.37h-2.75c-.21,0-.37.17-.37.38v3.19c0,.21.17.37.38.37h2.76c.21,0,.37-.17.37-.38v-3.2ZM40.66,19.86c0-.26-.21-.46-.47-.46h0l-2.95.02c-.26,0-.46.21-.46.47h0s.02,3.02.02,3.02c0,.26.21.46.47.46l2.95-.02c.26,0,.46-.21.46-.47l-.02-3.02ZM44.91,19.81c0-.22-.19-.4-.41-.4l-2.75.05c-.22,0-.4.19-.4.41l.05,3.11c0,.22.19.4.41.4l2.75-.05c.22,0,.4-.19.4-.41l-.05-3.11ZM49.25,19.76c0-.22-.18-.39-.39-.39,0,0,0,0,0,0h-2.79c-.22.02-.39.19-.39.41h0s.02,3.21.02,3.21c0,.22.18.39.39.39h2.79c.22-.02.39-.19.39-.41l-.02-3.21ZM31.27,24.17l-2.58.05c-.26,0-.47.23-.46.49l.04,2.2c.01.65.58,1.17,1.28,1.16,0,0,0,0,0,0l1.03-.02c.69-.01,1.24-.55,1.23-1.21l-.04-2.2c0-.27-.22-.48-.49-.47,0,0,0,0,0,0M36.06,24.54c0-.23-.2-.42-.43-.42l-2.66.04c-.23,0-.42.2-.42.43,0,0,0,0,0,0l.05,3c0,.23.2.42.43.42l2.66-.04c.23,0,.42-.2.42-.43,0,0,0,0,0,0l-.05-3ZM40.66,24.74c0-.31-.24-.56-.55-.56h0l-2.71-.03c-.31,0-.56.24-.56.55l-.03,2.71c0,.31.24.56.55.56h0l2.71.03c.31,0,.56-.24.56-.55h0s.03-2.7.03-2.7ZM44.9,24.68c0-.28-.24-.51-.52-.51l-2.53.03c-.28,0-.51.23-.51.52,0,0,0,0,0,0l.03,2.74c0,.28.24.51.52.51l2.53-.03c.28,0,.51-.23.51-.52,0,0,0,0,0,0l-.03-2.74ZM49.29,24.9c0-.42-.33-.77-.76-.77h0l-2.09-.02c-.42,0-.77.33-.77.76h0s-.02,2.35-.02,2.35c0,.42.33.77.76.77h0l2.09.02c.42,0,.77-.33.77-.76h0s.02-2.35.02-2.35ZM22.87,53.2c0,.46-.37.83-.83.83l-21.21-.04C.37,53.99,0,53.62,0,53.16H0s.04-22.98.04-22.98c0-.46.37-.83.83-.83l21.21.04c.46,0,.83.37.83.83h0s-.04,22.98-.04,22.98ZM4.62,30.87c0-.27-.22-.49-.49-.49h0l-2.64-.02c-.27,0-.49.22-.49.49h0s-.02,2.89-.02,2.89c0,.27.22.49.49.49h0l2.64.02c.27,0,.49-.22.49-.49h0s.02-2.89.02-2.89ZM8.96,30.84c0-.26-.21-.47-.47-.47h-2.62c-.26.01-.47.22-.47.48h0v2.85c.01.26.22.47.48.47h2.62c.26-.01.47-.22.47-.48h0s0-2.85,0-2.85ZM13.35,30.76c0-.22-.17-.39-.39-.39,0,0,0,0,0,0h-2.82c-.22-.02-.39.16-.39.37l-.02,3.08c0,.22.17.39.39.39,0,0,0,0,0,0h2.82c.22.02.39-.16.39-.37l.02-3.08ZM17.82,30.95c0-.31-.26-.56-.57-.56h0l-2.64.03c-.31,0-.56.26-.56.57h0s.03,2.64.03,2.64c0,.31.26.56.57.56h0l2.64-.03c.31,0,.56-.26.56-.57h0s-.03-2.64-.03-2.64ZM21.99,30.99c0-.32-.25-.57-.57-.57h0l-2.31-.02c-.32,0-.57.25-.57.57h0s-.02,2.62-.02,2.62c0,.32.25.57.57.57h0l2.31.02c.32,0,.57-.25.57-.57h0s.02-2.62.02-2.62ZM4.65,35.4c0-.24-.19-.44-.43-.45l-2.75-.04c-.24,0-.44.19-.45.43l-.04,3.08c0,.24.19.44.43.45l2.75.04c.24,0,.44-.19.45-.43l.04-3.08ZM8.99,35.28c0-.18-.14-.32-.32-.32h-2.95c-.18,0-.32.15-.32.32v3.24c0,.18.15.32.32.32h2.95c.18,0,.32-.15.32-.32v-3.24ZM13.33,35.34c0-.22-.18-.4-.4-.4h-2.77c-.22,0-.4.18-.4.4v3.15c0,.22.18.4.41.4h2.77c.22,0,.4-.18.4-.4v-3.15ZM17.83,35.41c0-.22-.18-.41-.41-.41h-2.95c-.22,0-.41.18-.41.4v3.1c0,.22.18.41.4.41h2.95c.22,0,.41-.18.41-.4v-3.1ZM21.95,35.39c0-.21-.17-.37-.38-.37h-2.69c-.21.02-.37.18-.37.39h0s.02,3.08.02,3.08c0,.21.17.37.38.37h2.69c.21-.02.37-.18.37-.39h0s-.02-3.08-.02-3.08ZM13.3,39.98c0-.19-.16-.35-.35-.35h-2.85c-.19.01-.35.17-.35.36h0s.01,3.36.01,3.36c0,.19.16.35.35.35h2.85c.19-.01.35-.17.35-.36h0s-.01-3.36-.01-3.36ZM4.57,40.08c0-.22-.18-.4-.4-.4H1.42c-.22,0-.4.17-.4.39v3.26c0,.22.17.4.39.4h2.75c.22,0,.4-.17.4-.39v-3.26ZM8.96,40.06c0-.2-.16-.37-.37-.37h-2.9c-.2,0-.37.16-.37.37v3.23c0,.2.16.37.37.37h2.9c.2,0,.37-.16.37-.37v-3.23ZM17.81,40.21c0-.24-.19-.43-.43-.43h-2.89c-.24,0-.43.19-.43.43v3.03c0,.24.19.43.43.43h2.89c.24,0,.43-.19.43-.43v-3.03ZM21.97,40.06c0-.18-.15-.33-.33-.33h-2.77c-.18.01-.33.16-.33.34h0s.01,3.29.01,3.29c0,.18.15.33.33.33h2.77c.18-.01.33-.16.33-.34v-3.29ZM13.34,44.98c0-.27-.22-.49-.49-.49h-2.61c-.27-.01-.49.2-.49.47v2.9c-.02.27.2.49.47.49,0,0,0,0,0,0h2.61c.27.01.49-.2.49-.47h0s.01-2.9.01-2.9ZM4.51,44.97c0-.23-.18-.42-.41-.42H1.44c-.23-.01-.42.17-.42.4l-.02,3.06c0,.23.18.42.41.42h2.66c.23.01.42-.17.42-.4l.02-3.06ZM8.96,45.02c0-.27-.22-.48-.48-.48h0l-2.75.02c-.27,0-.48.22-.48.48h0s.02,2.84.02,2.84c0,.27.22.48.48.48h0l2.75-.02c.27,0,.48-.22.48-.48h0s-.02-2.84-.02-2.84ZM17.76,45.05c0-.24-.19-.43-.42-.44l-2.8-.05c-.24,0-.44.19-.44.42,0,0,0,0,0,0l-.05,2.93c0,.24.19.43.42.44l2.8.05c.24,0,.44-.19.44-.42,0,0,0,0,0,0l.05-2.93ZM21.98,45.02c0-.21-.17-.38-.38-.38h-2.71c-.21-.02-.38.16-.38.37h0s-.02,2.98-.02,2.98c0,.21.17.38.38.38h2.71c.21.02.38-.16.38-.37h0s.02-2.98.02-2.98ZM13.28,49.58c0-.25-.21-.45-.45-.44,0,0,0,0,0,0l-2.67.04c-.25,0-.45.21-.44.45h0s.04,2.95.04,2.95c0,.25.21.45.45.44h0l2.67-.04c.25,0,.45-.21.44-.45h0s-.04-2.95-.04-2.95ZM4.54,49.68c0-.27-.22-.5-.49-.5h0l-2.51-.03c-.27,0-.5.22-.5.49,0,0,0,0,0,0l-.03,2.87c0,.27.22.5.49.5l2.51.03c.27,0,.5-.22.5-.49h0s.03-2.87.03-2.87ZM8.94,49.72c0-.29-.23-.52-.52-.52h-2.59c-.29-.01-.52.22-.52.51v2.74c-.02.29.22.52.5.52,0,0,0,0,0,0h2.59c.29.01.52-.22.52-.51v-2.74ZM17.7,49.74c0-.3-.24-.54-.54-.54h-2.54c-.3,0-.54.24-.54.53h0s0,2.74,0,2.74c0,.3.24.54.54.54h2.54c.3,0,.54-.24.54-.53h0s0-2.74,0-2.74ZM21.93,49.69c0-.25-.21-.45-.45-.44h0l-2.62.03c-.25,0-.45.21-.44.45l.03,2.8c0,.25.21.45.45.44,0,0,0,0,0,0l2.62-.03c.25,0,.45-.21.44-.45l-.03-2.8Z" style="fill:#fff;"/></g><g id="uuid-fdc2ebbf-f4b0-456a-8a20-58ff199ca168"><path d="M86.2,29.05c.55,8.26-5.09,13.35-11.81,13.35s-13.21-5.46-13.21-13.28,6.46-13.28,13.21-13.28c3.25,0,6.2,1.11,8.52,3.06l-1.88,2.14c-1.81-1.44-4.13-2.29-6.46-2.29-5.28,0-10.22,4.28-10.22,10.37s4.8,10.37,10.03,10.37c4.57,0,8.23-2.47,8.93-7.78h-7.53v-2.66s10.4,0,10.4,0ZM93.17,16.21v25.82h-3.06v-25.82h3.06ZM122.06,29.05c.55,8.26-5.09,13.35-11.81,13.35s-13.21-5.46-13.21-13.28,6.46-13.28,13.21-13.28c3.25,0,6.2,1.11,8.52,3.06l-1.88,2.14c-1.81-1.44-4.13-2.29-6.46-2.29-5.28,0-10.22,4.28-10.22,10.37s4.8,10.37,10.03,10.37c4.57,0,8.23-2.47,8.93-7.78h-7.53v-2.66s10.4,0,10.4,0ZM129.03,39.16h12.28v2.88h-15.35v-25.82h15.01v2.88h-11.95v8.56h9.3v2.8h-9.3v8.71ZM146.07,42.22c-1.22,0-1.81-.59-1.81-1.81s.59-1.81,1.81-1.81,1.81.59,1.81,1.81-.59,1.81-1.81,1.81ZM172.71,39.27c-2.36,2.03-5.35,3.14-8.67,3.14-6.71,0-13.21-5.46-13.21-13.28s6.49-13.28,13.21-13.28c3.28,0,6.23,1.11,8.56,3.06l-1.88,2.14c-1.81-1.44-4.13-2.29-6.46-2.29-5.28,0-10.26,4.28-10.26,10.37s4.98,10.37,10.26,10.37c2.36,0,4.72-.89,6.53-2.36l1.92,2.14ZM188.87,15.84c6.71,0,13.21,5.46,13.21,13.28s-6.49,13.28-13.21,13.28-13.21-5.46-13.21-13.28,6.46-13.28,13.21-13.28h0ZM188.87,39.49c5.05,0,10.03-4.28,10.03-10.37s-4.98-10.37-10.03-10.37-10.03,4.28-10.03,10.37,4.94,10.37,10.03,10.37Z" style="fill:#fff;"/></g></g></svg>